<?xml version="1.0" encoding="utf-8"?>
<!-- Svg Vector Icons : http://www.onlinewebfonts.com/icon -->
<!DOCTYPE svg PUBLIC "-//W3C//DTD SVG 1.1//EN" "http://www.w3.org/Graphics/SVG/1.1/DTD/svg11.dtd">
<svg version="1.1" xmlns="http://www.w3.org/2000/svg" xmlns:xlink="http://www.w3.org/1999/xlink" x="0px" y="0px" viewBox="0 0 1000 1000" enable-background="new 0 0 1000 1000" xml:space="preserve">
<metadata> Svg Vector Icons : http://www.onlinewebfonts.com/icon </metadata>
<g fill="#306a9e"><path d="M500,990C230.3,990,10,769.7,10,500C10,230.3,230.3,10,500,10c269.7,0,490,220.3,490,490C990,769.7,769.7,990,500,990z M500,42.9C248.4,42.9,42.9,248.4,42.9,500S248.4,957.1,500,957.1S957.1,751.6,957.1,500S751.6,42.9,500,42.9z"/><path d="M555.9,764.7H442.4c-106.9,0-190.7,0-190.7-54.3V699c0-103.6,85.5-187.5,190.7-187.5h113.5c105.2,0,190.7,83.9,190.7,187.5v11.5C746.6,764.7,657.9,764.7,555.9,764.7L555.9,764.7z M495.1,498.4c-82.2,0-151.3-65.8-151.3-148c0-82.2,67.4-148,151.3-148c82.2,0,151.3,65.8,151.3,148C644.7,432.6,577.3,498.4,495.1,498.4L495.1,498.4z"/></g>
</svg>